<?xml version="1.0" encoding="iso-8859-1"?>
<!-- Generator: Adobe Illustrator 19.0.0, SVG Export Plug-In . SVG Version: 6.00 Build 0)  -->
<svg version="1.1" id="Layer_1" xmlns="http://www.w3.org/2000/svg" xmlns:xlink="http://www.w3.org/1999/xlink" x="0px" y="0px"
	 viewBox="0 0 512 512" style="enable-background:new 0 0 512 512;" xml:space="preserve">
<g>
	<g>
		<g>
			<path d="M129.208,292.927c1.833,3.531,5.479,5.74,9.458,5.74h74.667v138.667c0,4.656,3.021,8.771,7.458,10.177
				c1.063,0.333,2.146,0.49,3.208,0.49c3.417,0,6.708-1.646,8.729-4.552l149.333-213.333c2.292-3.26,2.563-7.51,0.729-11.042
				s-5.479-5.74-9.458-5.74h-74.667V74.667c0-4.656-3.021-8.771-7.458-10.177c-4.458-1.406-9.292,0.25-11.938,4.063L129.938,281.885
				C127.646,285.146,127.375,289.396,129.208,292.927z M277.333,108.51V224c0,5.896,4.771,10.667,10.667,10.667h64.854
				L234.667,403.49V288c0-5.896-4.771-10.667-10.667-10.667h-64.854L277.333,108.51z"/>
			<path d="M413.625,429.469C370.229,468.938,314.25,490.667,256,490.667c-53.896,0-104.771-18.302-145.438-50.5l25.375-41.417
				c1.75-2.865,2.042-6.396,0.813-9.51c-1.25-3.125-3.875-5.479-7.125-6.354l-88.333-23.927c-4.021-1.104-8.438,0.302-11.104,3.604
				c-2.646,3.302-3.104,7.865-1.146,11.625C73.396,459.188,160.375,512,256,512c63.563,0,124.646-23.708,171.958-66.74
				c4.375-3.969,4.688-10.719,0.729-15.073C424.729,425.833,417.979,425.531,413.625,429.469z M94.25,425.958
				c-12.375-11.802-23.521-25.042-33.208-39.552l49.25,13.344L94.25,425.958z"/>
			<path d="M21.333,256c0-98.76,61.313-183.469,147.896-218.042l23.167,42.688c1.604,2.948,4.5,4.969,7.813,5.458
				c3.313,0.469,6.688-0.615,9.063-2.979l64.896-64.344c3.021-2.979,3.979-7.469,2.458-11.417c-1.542-3.948-5.25-6.625-9.5-6.813
				l-3.708-0.229C260.958,0.156,258.5,0,256,0C114.833,0,0,114.844,0,256c0,17.948,2,36.25,5.938,54.406
				c1.083,5,5.5,8.406,10.396,8.406c0.75,0,1.521-0.073,2.271-0.24c5.771-1.25,9.417-6.927,8.167-12.688
				C23.167,289.208,21.333,272.427,21.333,256z M240.813,21.823l-36.458,36.146l-14.708-27.083
				C206.042,26.042,223.167,22.948,240.813,21.823z"/>
			<path d="M333.917,12.167c-5.708-1.865-11.604,1.313-13.417,6.917c-1.792,5.604,1.313,11.604,6.917,13.396
				c97.646,31.177,163.25,121,163.25,223.521c0,11.385-0.833,22.698-2.479,33.865l-48.542-1.271c-3.458,0-6.563,1.417-8.646,4.052
				c-2.083,2.635-2.792,6.094-1.938,9.344l23.396,88.427c1.083,4.094,4.479,7.156,8.667,7.813c0.563,0.083,1.104,0.125,1.646,0.125
				c3.604,0,7.021-1.833,9-4.927C498.083,352.167,512,304.646,512,256C512,144.156,440.438,46.167,333.917,12.167z M466.375,359.625
				l-13.042-49.333l30.729,0.802C480,327.823,474.063,344.094,466.375,359.625z"/>
		</g>
	</g>
</g>
<g>
</g>
<g>
</g>
<g>
</g>
<g>
</g>
<g>
</g>
<g>
</g>
<g>
</g>
<g>
</g>
<g>
</g>
<g>
</g>
<g>
</g>
<g>
</g>
<g>
</g>
<g>
</g>
<g>
</g>
</svg>
